<?xml version="1.0" standalone="no"?>
<!DOCTYPE svg PUBLIC "-//W3C//DTD SVG 20010904//EN"
 "http://www.w3.org/TR/2001/REC-SVG-20010904/DTD/svg10.dtd">
<svg version="1.0" xmlns="http://www.w3.org/2000/svg"
 width="50.000000pt" height="50.000000pt" viewBox="0 0 50.000000 50.000000"
 preserveAspectRatio="xMidYMid meet">
<metadata>
Created by potrace 1.16, written by Peter Selinger 2001-2019
</metadata>
<g transform="translate(0.000000,50.000000) scale(0.100000,-0.100000)"
fill="#000000" stroke="none">
<path d="M217 494 c-4 -4 -7 -15 -7 -25 0 -10 -9 -20 -20 -24 -40 -13 -68 -61
-75 -132 -8 -74 -21 -108 -54 -137 -27 -25 -27 -62 0 -76 11 -7 45 -14 75 -17
50 -5 54 -8 54 -32 0 -37 17 -51 60 -51 43 0 60 14 60 51 0 24 4 27 54 32 30
3 64 10 75 17 27 14 27 51 0 76 -33 29 -46 63 -54 137 -7 71 -35 119 -75 132
-10 3 -20 16 -22 28 -2 16 -11 23 -33 25 -17 2 -34 0 -38 -4z m105 -101 c18
-19 28 -44 33 -78 12 -103 17 -116 46 -150 l31 -35 -28 -10 c-36 -14 -272 -14
-308 0 l-28 10 30 34 c31 36 37 52 47 148 5 47 12 62 36 83 44 36 106 35 141
-2z"/>
</g>
</svg>
