<?xml version="1.0" standalone="no"?>
<!DOCTYPE svg PUBLIC "-//W3C//DTD SVG 20010904//EN"
 "http://www.w3.org/TR/2001/REC-SVG-20010904/DTD/svg10.dtd">
<svg version="1.0" xmlns="http://www.w3.org/2000/svg"
 width="30.000000pt" height="30.000000pt" viewBox="0 0 30.000000 30.000000"
 preserveAspectRatio="xMidYMid meet">
<metadata>
Created by potrace 1.16, written by Peter Selinger 2001-2019
</metadata>
<g transform="translate(0.000000,30.000000) scale(0.100000,-0.100000)"
fill="#000000" stroke="none">
<path d="M56 244 c-38 -38 -37 -110 1 -149 25 -25 33 -27 85 -23 51 4 61 1 80
-19 12 -13 27 -23 35 -23 20 0 15 24 -10 48 -20 19 -23 29 -19 80 4 52 2 60
-23 85 -39 38 -111 39 -149 1z m124 -24 c11 -11 20 -33 20 -50 0 -61 -77 -93
-120 -50 -43 43 -11 120 50 120 17 0 39 -9 50 -20z"/>
</g>
</svg>
