<?xml version="1.0" standalone="no"?>
<!DOCTYPE svg PUBLIC "-//W3C//DTD SVG 20010904//EN"
 "http://www.w3.org/TR/2001/REC-SVG-20010904/DTD/svg10.dtd">
<svg version="1.0" xmlns="http://www.w3.org/2000/svg"
 width="768.000000pt" height="171.000000pt" viewBox="0 0 768.000000 171.000000"
 preserveAspectRatio="xMidYMid meet">
<metadata>
Created by potrace 1.16, written by Peter Selinger 2001-2019
</metadata>
<g transform="translate(0.000000,171.000000) scale(0.100000,-0.100000)"
fill="#000000" stroke="none">
<path d="M585 1699 c-305 -18 -373 -36 -457 -119 -48 -48 -60 -67 -77 -126
-38 -133 -46 -232 -46 -604 0 -565 32 -693 192 -777 113 -60 298 -73 1028 -73
856 0 994 16 1104 130 92 95 116 242 116 725 0 505 -25 639 -137 740 -79 71
-153 87 -478 105 -214 12 -1039 11 -1245 -1z m743 -678 c155 -90 282 -166 282
-169 -1 -6 -596 -352 -620 -360 -6 -2 -10 131 -10 363 l0 367 33 -19 c17 -11
159 -92 315 -182z"/>
<path d="M6250 880 l0 -770 105 0 104 0 10 38 c6 20 11 43 11 50 0 8 12 -1 27
-19 63 -75 195 -101 283 -56 101 51 138 165 147 452 6 214 -7 407 -34 492 -52
166 -241 205 -370 77 l-43 -43 0 274 0 275 -120 0 -120 0 0 -770z m383 140
c17 -14 29 -37 36 -71 15 -66 14 -503 0 -570 -15 -71 -48 -103 -96 -96 -20 4
-46 16 -59 28 l-24 22 0 300 c0 331 3 351 64 388 39 24 47 24 79 -1z"/>
<path d="M2690 1580 c0 -5 61 -229 135 -497 l135 -487 0 -243 0 -243 125 0
125 0 0 242 0 242 136 485 c75 267 139 491 141 499 4 10 -20 12 -123 10 l-127
-3 -58 -260 c-32 -143 -66 -304 -75 -357 l-17 -97 -48 232 c-26 128 -60 289
-75 360 l-27 127 -124 0 c-73 0 -123 -4 -123 -10z"/>
<path d="M4810 1490 l0 -100 120 0 120 0 0 -640 0 -640 120 0 120 0 0 640 0
640 120 0 120 0 0 100 0 100 -360 0 -360 0 0 -100z"/>
<path d="M3663 1210 c-89 -19 -152 -67 -192 -147 -40 -80 -51 -168 -51 -409 0
-314 21 -407 109 -487 51 -46 122 -67 226 -67 117 0 179 21 237 80 36 37 52
64 68 117 39 126 49 459 19 637 -23 134 -77 219 -166 258 -50 22 -186 32 -250
18z m137 -190 c11 -11 23 -32 27 -47 10 -36 10 -600 0 -636 -10 -37 -42 -67
-70 -67 -36 0 -66 40 -78 105 -15 81 -7 569 9 610 24 56 75 72 112 35z"/>
<path d="M7263 1206 c-113 -28 -177 -103 -210 -246 -26 -109 -26 -502 0 -611
25 -107 68 -174 137 -213 53 -30 60 -31 170 -31 99 0 122 3 166 23 93 42 139
115 150 239 l7 70 -48 6 c-26 4 -76 7 -110 7 l-62 0 -11 -67 c-12 -74 -42
-113 -86 -113 -60 0 -86 68 -86 221 l0 79 201 0 201 0 -4 208 c-4 152 -9 220
-21 255 -40 122 -114 175 -258 182 -52 3 -104 0 -136 -9z m151 -185 c20 -22
35 -119 36 -228 l0 -73 -86 0 -87 0 5 128 c4 121 15 166 42 184 21 15 73 8 90
-11z"/>
<path d="M4212 733 l3 -468 26 -56 c37 -78 75 -103 166 -107 39 -2 88 1 108 8
42 14 100 62 126 103 l17 29 8 -64 9 -63 103 -3 102 -3 0 546 0 545 -130 0
-130 0 0 -434 0 -434 -31 -26 c-37 -31 -79 -33 -105 -5 -18 20 -19 45 -22 460
l-3 439 -125 0 -125 0 3 -467z"/>
<path d="M5450 757 c0 -367 3 -453 15 -502 31 -118 89 -159 214 -154 90 5 141
31 190 99 l29 40 9 -62 8 -63 103 -3 102 -3 0 546 0 545 -130 0 -130 0 0 -434
0 -434 -31 -26 c-37 -31 -79 -33 -105 -5 -18 20 -19 45 -22 460 l-3 439 -124
0 -125 0 0 -443z"/>
</g>
</svg>
